<?xml version="1.0" encoding="UTF-8"?>
<svg xmlns="http://www.w3.org/2000/svg" xmlns:xlink="http://www.w3.org/1999/xlink" width="240pt" height="240pt" viewBox="0 0 240 240" version="1.1">
<defs>
<filter id="alpha" filterUnits="objectBoundingBox" x="0%" y="0%" width="100%" height="100%">
  <feColorMatrix type="matrix" in="SourceGraphic" values="0 0 0 0 1 0 0 0 0 1 0 0 0 0 1 0 0 0 1 0"/>
</filter>
<mask id="mask0">
  <g filter="url(#alpha)">
<rect x="0" y="0" width="240" height="240" style="fill:rgb(0%,0%,0%);fill-opacity:0.0509804;stroke:none;"/>
  </g>
</mask>
<clipPath id="clip1">
  <rect width="240" height="240"/>
</clipPath>
<g id="surface15129815" clip-path="url(#clip1)">
<path style=" stroke:none;fill-rule:nonzero;fill:rgb(0%,0%,0%);fill-opacity:1;" d="M 150 185 L 150 134.503906 C 150 126.058594 145.90625 121.015625 139.039062 121.015625 C 134.964844 121.015625 131.96875 123.308594 130.144531 127.835938 C 130.058594 128.15625 129.941406 129.460938 129.988281 133.40625 L 130 185 L 95 185 L 95 90 L 130 90 L 130 95.304688 C 135.109375 91.78125 141.375 90 148.691406 90 C 171.425781 90 184.996094 105.464844 184.996094 131.371094 L 185 185 Z M 55 185 L 55 90 L 72.285156 90 C 62.269531 90 55 82.640625 55 72.496094 C 55 62.359375 62.390625 55 72.570312 55 C 82.628906 55 89.796875 62.15625 90 72.394531 C 90 82.613281 82.605469 90 72.425781 90 L 90 90 L 90 185 Z M 55 185 "/>
</g>
<mask id="mask1">
  <g filter="url(#alpha)">
<rect x="0" y="0" width="240" height="240" style="fill:rgb(0%,0%,0%);fill-opacity:0.0705882;stroke:none;"/>
  </g>
</mask>
<clipPath id="clip2">
  <rect width="240" height="240"/>
</clipPath>
<g id="surface15129818" clip-path="url(#clip2)">
<path style=" stroke:none;fill-rule:nonzero;fill:rgb(0%,0%,0%);fill-opacity:1;" d="M 152.5 182.5 L 152.5 134.503906 C 152.5 124.640625 147.34375 118.515625 139.039062 118.515625 C 132.566406 118.515625 129.363281 123.074219 127.824219 126.898438 C 127.414062 127.894531 127.46875 131.84375 127.488281 133.53125 L 127.5 182.5 L 97.5 182.5 L 97.5 92.5 L 127.5 92.5 L 127.5 100.691406 C 131.476562 96.574219 137.875 92.5 148.691406 92.5 C 169.855469 92.5 182.496094 107.03125 182.496094 131.371094 L 182.5 182.5 Z M 57.5 182.5 L 57.5 92.5 L 87.5 92.5 L 87.5 182.5 Z M 72.285156 87.5 C 63.71875 87.5 57.5 81.191406 57.5 72.496094 C 57.5 63.804688 63.839844 57.5 72.570312 57.5 C 81.191406 57.5 87.324219 63.644531 87.5 72.445312 C 87.5 81.191406 81.160156 87.5 72.425781 87.5 Z M 72.285156 87.5 "/>
</g>
</defs>
<g id="surface15129810">
<path style=" stroke:none;fill-rule:nonzero;fill:rgb(20.392157%,59.607843%,85.882353%);fill-opacity:1;" d="M 210 185 C 210 198.808594 198.808594 210 185 210 L 55 210 C 41.195312 210 30 198.808594 30 185 L 30 55 C 30 41.191406 41.195312 30 55 30 L 185 30 C 198.808594 30 210 41.191406 210 55 Z M 210 185 "/>
<use xlink:href="#surface15129815" mask="url(#mask0)"/>
<use xlink:href="#surface15129818" mask="url(#mask1)"/>
<path style=" stroke:none;fill-rule:nonzero;fill:rgb(100%,100%,100%);fill-opacity:1;" d="M 60 95 L 85 95 L 85 180 L 60 180 Z M 72.425781 85 L 72.285156 85 C 64.824219 85 60 79.441406 60 72.496094 C 60 65.398438 64.976562 60 72.570312 60 C 80.175781 60 84.859375 65.398438 85 72.496094 C 85 79.433594 80.175781 85 72.425781 85 Z M 180 180 L 155 180 L 155 134.503906 C 155 123.515625 148.875 116.015625 139.039062 116.015625 C 131.535156 116.015625 127.476562 121.074219 125.503906 125.964844 C 124.785156 127.714844 125 132.554688 125 135 L 125 180 L 100 180 L 100 95 L 125 95 L 125 108.078125 C 128.605469 102.5 134.25 95 148.691406 95 C 166.578125 95 179.996094 106.25 179.996094 131.371094 Z M 180 180 "/>
</g>
</svg>
